<svg xmlns="http://www.w3.org/2000/svg" xmlns:svg="http://www.w3.org/2000/svg" xmlns:xlink="http://www.w3.org/1999/xlink" id="svg8" width="210mm" height="297mm" version="1.1" viewBox="0 0 210 297"><defs id="defs2"><linearGradient id="linearGradient176"><stop id="stop172" offset="0" style="stop-color:#0ff;stop-opacity:1"/><stop id="stop174" offset="1" style="stop-color:#fff;stop-opacity:1"/></linearGradient><linearGradient id="linearGradient178" x1="125.103" x2="99.539" y1="68.351" y2="83.097" gradientTransform="matrix(1.4604642,0,0,1.4604642,-69.110178,-3.625376)" gradientUnits="userSpaceOnUse" spreadMethod="pad" xlink:href="#linearGradient176"/></defs><metadata id="metadata5"/><g style="display:inline" id="layer1"><path style="fill:#a0a0a0;stroke:none;stroke-width:.505076" id="path53" transform="scale(0.26458333)"/><path style="fill:#0ff;stroke-width:.357143" id="path63" transform="scale(0.26458333)"/><path style="fill:#0ff;stroke-width:.357143" id="path67" transform="scale(0.26458333)"/><path style="fill:#0ff;stroke-width:.0631345" id="path77" transform="scale(0.26458333)"/><path style="fill:#0ff;stroke-width:.0631345" id="path79" transform="scale(0.26458333)"/><path style="fill:#0ff;stroke-width:.0631345" id="path85" transform="scale(0.26458333)"/><path style="fill:#0ff;stroke-width:.00789182" id="path97" transform="scale(0.26458333)"/><rect id="rect195" width="69.85" height="46.037" x="22.49" y="66.94" ry="7.408" style="fill:#fdb788;fill-opacity:1;stroke:#fda66b;stroke-width:5;stroke-miterlimit:4;stroke-dasharray:none;stroke-opacity:1"/><rect style="display:inline;fill:#97dc96;fill-opacity:1;stroke:#79d178;stroke-width:5;stroke-miterlimit:4;stroke-dasharray:none;stroke-opacity:1" id="rect195-4" width="69.85" height="46.037" x="106.098" y="66.94" ry="7.408"/><rect style="display:inline;fill:#ec857a;fill-opacity:1;stroke:#e76759;stroke-width:5;stroke-miterlimit:4;stroke-dasharray:none;stroke-opacity:1" id="rect195-2" width="69.85" height="46.037" x="106.098" y="125.677" ry="7.408"/><rect style="display:inline;fill:#ada2e6;fill-opacity:1;stroke:#a194e2;stroke-width:5;stroke-miterlimit:4;stroke-dasharray:none;stroke-opacity:1" id="rect195-40" width="69.85" height="46.037" x="22.49" y="125.677" ry="7.408"/></g><g id="layer3"><rect id="rect874" width="159.532" height="159.532" x="19.476" y="38.019" style="display:inline;fill:none;fill-opacity:1;stroke:#000;stroke-width:.466683;stroke-miterlimit:4;stroke-dasharray:none;stroke-opacity:1"/></g><g id="layer2" style="display:inline"><g id="g984" transform="matrix(1.2089633,0.12592197,-0.12592197,1.2089633,-1.4926359,-24.147613)"><path style="display:inline;fill:url(#linearGradient178);fill-opacity:1;fill-rule:evenodd;stroke:#000;stroke-width:4;stroke-miterlimit:4;stroke-dasharray:none" id="path160" d="m 84.497387,142.52715 c 3.800332,14.77935 20.154493,22.24922 34.293423,18.13947 17.79238,-5.1717 26.67155,-25.08214 21.28489,-42.26368 -2.70486,-8.62752 -8.64463,-16.02958 -16.34519,-20.732053 L 59.102914,58.306558 c 0,0 -7.574591,-4.927826 -11.562657,1.896851 -3.988065,6.824676 3.507024,11.328704 3.507024,11.328704 l 12.087989,7.41463 c 0,0 -7.574595,-4.92784 -11.562655,1.896837 -3.988061,6.824676 3.507027,11.328718 3.507027,11.328718 l 12.087985,7.414616 c 0,0 -7.574596,-4.927825 -11.562656,1.896836 -3.98806,6.82468 3.507027,11.32872 3.507027,11.32872 l 26.23443,15.8279 c -1.675883,4.34532 -2.036647,9.26825 -0.849041,13.88678 z"/><path style="display:inline;fill:none;fill-rule:evenodd;stroke:#000;stroke-width:4;stroke-miterlimit:4;stroke-dasharray:none" id="path14-8" d="m 106.7287,132.87745 c -3.34392,1.45147 0.30677,5.22366 2.41241,5.55784 5.70621,0.90561 9.20167,-5.48165 8.70325,-10.38267 -0.89156,-8.76679 -10.33168,-13.4781 -18.352928,-11.84866 -6.868534,1.39527 -11.797264,6.34905 -14.145004,12.43641"/><path id="path963" d="M 67.167627,99.586914 86.233264,111.64215" style="fill:none;stroke:#000;stroke-width:4;stroke-linecap:butt;stroke-linejoin:miter;stroke-miterlimit:4;stroke-dasharray:none;stroke-opacity:1"/><path style="display:inline;fill:none;stroke:#000;stroke-width:4;stroke-linecap:butt;stroke-linejoin:miter;stroke-miterlimit:4;stroke-dasharray:none;stroke-opacity:1" id="path963-2" d="m 63.13527,78.946743 19.065637,12.05524"/></g></g></svg>