<svg xmlns="http://www.w3.org/2000/svg" xmlns:svg="http://www.w3.org/2000/svg" xmlns:xlink="http://www.w3.org/1999/xlink" id="svg8" width="210mm" height="297mm" version="1.1" viewBox="0 0 210 297"><defs id="defs2"><linearGradient id="linearGradient895"><stop style="stop-color:#f9d300;stop-opacity:1" id="stop891" offset="0"/><stop style="stop-color:#f9f3dd;stop-opacity:1" id="stop893" offset="1"/></linearGradient><linearGradient id="linearGradient897" x1="25.94" x2="87.788" y1="82.039" y2="20.191" gradientUnits="userSpaceOnUse" spreadMethod="pad" xlink:href="#linearGradient895"/></defs><metadata id="metadata5"/><g id="layer1"><rect style="fill:none;stroke:none;stroke-width:.508678;stroke-miterlimit:4;stroke-dasharray:none;stroke-opacity:1" id="rect837" width="99.491" height="99.491" x=".254" y=".254"/><path style="mix-blend-mode:normal;fill:url(#linearGradient897);fill-opacity:1;stroke:none;stroke-width:2.4735;stroke-linecap:round;stroke-linejoin:round;stroke-opacity:1;fill-rule:nonzero" id="path446" d="m 13.903044,24.050066 v 53.899868 a 3.96875,3.96875 45 0 0 3.96875,3.96875 h 65.667842 a 4.0171366,4.0171366 135.34715 0 0 4.016842,-3.968459 L 88.059794,36.417248 A 3.9209462,3.9209462 45.347152 0 0 84.139136,32.448789 H 56.210963 A 8.2574807,8.2574807 25.670094 0 1 49.762954,29.349716 L 44.827492,23.180389 A 8.2574807,8.2574807 25.670094 0 0 38.379483,20.081316 H 17.871794 a 3.96875,3.96875 135 0 0 -3.96875,3.96875 z"/></g></svg>