<svg xmlns="http://www.w3.org/2000/svg" xmlns:svg="http://www.w3.org/2000/svg" xmlns:xlink="http://www.w3.org/1999/xlink" id="svg8" width="375.66" height="375.66" version="1.1" viewBox="0 0 99.393 99.393"><defs id="defs2"><linearGradient id="linearGradient1831"><stop style="stop-color:#faf1ff;stop-opacity:1" id="stop1827" offset="0"/><stop style="stop-color:#7800b2;stop-opacity:1" id="stop1829" offset="1"/></linearGradient><linearGradient id="linearGradient1833" x1="53.042" x2="5.833" y1="1.876" y2="49.085" gradientUnits="userSpaceOnUse" xlink:href="#linearGradient1831"/></defs><metadata id="metadata5"/><g id="layer1" transform="translate(-0.30332944,-0.303328)"><rect id="rect933" width="99.393" height="99.393" x="-99.697" y=".303" ry="0" style="fill:none;fill-opacity:1;stroke:none;stroke-width:.606656;stroke-miterlimit:4;stroke-dasharray:none;stroke-opacity:1" transform="scale(-1,1)"/><path style="fill:url(#linearGradient1833);fill-opacity:1;stroke:none;stroke-width:3;stroke-linecap:round;stroke-linejoin:round;stroke-opacity:1" id="path1760" d="M 49.405567,30.94999 39.386332,36.761135 A 4000.2513,4000.2513 150 0 1 25.638206,44.69862 L 15.59599,50.469958 A 4.6037418,4.6037418 30 0 1 8.6983022,46.487576 L 8.6753197,34.905091 a 4000.2513,4000.2513 90 0 1 0,-15.874969 L 8.6983022,7.4476392 A 4.6037418,4.6037418 150 0 1 15.59599,3.4652572 L 25.638208,9.236596 a 4000.2513,4000.2513 30 0 1 13.748126,7.937484 l 10.019233,5.811145 a 4.6037418,4.6037418 90 0 1 0,7.964765 z" transform="matrix(0.93278766,0,0,0.93278766,23.427829,25.294069)"/></g></svg>