<svg xmlns="http://www.w3.org/2000/svg" xmlns:svg="http://www.w3.org/2000/svg" xmlns:xlink="http://www.w3.org/1999/xlink" id="svg8" width="375.66" height="375.66" version="1.1" viewBox="0 0 99.393 99.393"><defs id="defs2"><linearGradient id="linearGradient2597"><stop style="stop-color:#adbfff;stop-opacity:1" id="stop2593" offset="0"/><stop style="stop-color:#003ee6;stop-opacity:1" id="stop2595" offset="1"/></linearGradient><linearGradient id="linearGradient2599" x1="72.993" x2="25.407" y1="25.742" y2="73.327" gradientTransform="matrix(1.086913,0,0,1.0970928,-4.3454211,-4.8544096)" gradientUnits="userSpaceOnUse" xlink:href="#linearGradient2597"/></defs><metadata id="metadata5"/><g id="layer2" style="display:inline" transform="translate(-0.30332944,-0.303328)"><path id="use2224" style="display:inline;fill:url(#linearGradient2599);fill-opacity:1;stroke:none;stroke-width:2.15934;stroke-dasharray:none;stroke-opacity:1" d="m 46.412844,25 c -7.209573,1.042347 -13.421411,5.179377 -17.274963,11.038292 h 9.119963 C 40.63119,30.715174 43.99041,27.104977 46.412844,25 Z m 7.174312,0 c 2.423273,2.105251 5.784606,5.715559 8.157247,11.038292 h 9.117716 C 67.008461,30.17932 60.796894,26.042202 53.587156,25 Z m -4.661365,0.691098 c -2.076433,1.57126 -5.740805,4.899785 -8.351588,10.347194 h 8.351588 z m 2.148418,0.0011 v 10.346059 h 8.35215 C 56.813973,30.587421 53.149791,27.262421 51.074209,25.692233 Z M 27.861186,38.208532 C 26.176683,41.427465 25.161038,45.058595 25,48.915731 h 10.407329 c 0.114805,-4.079487 0.869393,-7.638957 1.975982,-10.707199 z m 11.778947,0 c -1.15601,3.007825 -1.960787,6.561762 -2.081579,10.707199 H 48.925791 V 38.208532 Z m 11.434076,0 V 48.915731 H 62.442006 C 62.321212,44.770303 61.516417,41.216363 60.360429,38.208532 Z m 11.544726,0 c 1.106024,3.067653 1.859641,6.627452 1.974298,10.707199 H 75 C 74.838964,45.058683 73.823811,41.42741 72.139374,38.208532 Z M 25,51.08427 c 0.162888,3.903557 1.200893,7.575809 2.921848,10.823422 h 9.504151 c -1.129116,-3.094554 -1.90263,-6.691135 -2.01867,-10.823422 z m 12.557994,0 c 0.12209,4.198955 0.946908,7.791073 2.126511,10.823422 h 9.241286 V 51.08427 Z m 13.516215,0 v 10.823422 h 9.241847 c 1.179613,-3.032444 2.004412,-6.624463 2.126512,-10.823422 z m 13.519024,0 c -0.116018,4.132135 -0.889635,7.728968 -2.01867,10.823422 h 9.504151 C 73.799665,58.660082 74.83711,54.987823 75,51.08427 Z M 29.213707,64.077932 C 33.07258,69.875495 39.250459,73.964382 46.412282,75 44.007024,72.909752 40.678078,69.33581 38.309518,64.077932 Z m 11.416664,0 c 2.606482,5.378672 6.233775,8.670902 8.29542,10.230971 V 64.077932 Z m 10.443838,0 v 10.232104 c 2.06151,-1.559911 5.689246,-4.85268 8.295981,-10.232104 z m 10.617396,0 C 59.322241,69.337583 55.992153,72.910092 53.586594,75 60.749131,73.964772 66.927688,69.875955 70.786855,64.077932 Z"/></g><g id="layer1" style="display:inline" transform="translate(-0.30332944,-0.303328)"><rect id="rect933" width="99.393" height="99.393" x="-99.697" y=".303" ry="0" style="fill:none;fill-opacity:1;stroke:none;stroke-width:.606656;stroke-miterlimit:4;stroke-dasharray:none;stroke-opacity:1" transform="scale(-1,1)"/></g></svg>